<?xml version="1.0" encoding="UTF-8" standalone="no"?>
<!-- Created with Inkscape (http://www.inkscape.org/) -->

<svg
   width="210mm"
   height="297mm"
   viewBox="0 0 210 297"
   version="1.1"
   id="svg1"
   inkscape:version="1.4.3 (0d15f75, 2025-12-25)"
   sodipodi:docname="art-2.svg"
   inkscape:export-filename="icon.svg"
   inkscape:export-xdpi="96"
   inkscape:export-ydpi="96"
   xmlns:inkscape="http://www.inkscape.org/namespaces/inkscape"
   xmlns:sodipodi="http://sodipodi.sourceforge.net/DTD/sodipodi-0.dtd"
   xmlns="http://www.w3.org/2000/svg"
   xmlns:svg="http://www.w3.org/2000/svg">
  <sodipodi:namedview
     id="namedview1"
     pagecolor="#ffffff"
     bordercolor="#000000"
     borderopacity="0.25"
     inkscape:showpageshadow="2"
     inkscape:pageopacity="0.0"
     inkscape:pagecheckerboard="0"
     inkscape:deskcolor="#d1d1d1"
     inkscape:document-units="mm"
     inkscape:zoom="0.11108918"
     inkscape:cx="715.64125"
     inkscape:cy="54.01066"
     inkscape:window-width="1127"
     inkscape:window-height="429"
     inkscape:window-x="665"
     inkscape:window-y="239"
     inkscape:window-maximized="0"
     inkscape:current-layer="layer1" />
  <defs
     id="defs1" />
  <g
     inkscape:label="Camada 1"
     inkscape:groupmode="layer"
     id="layer1">
    <rect
       style="fill:#1a1a1a;fill-opacity:1;stroke:#000000;stroke-width:0"
       id="rect1-0"
       width="44.983688"
       height="43.96143"
       x="63.23542"
       y="87.57708" />
    <path
       d="m 96.51397,102.16504 c 0.10693,0.0672 0.25195,0.14985 0.31787,0.2499 5.55029,8.44863 -0.69873,19.63857 -10.69775,19.84365 -3.9624,0.0806 -7.08838,-1.75928 -9.83643,-4.43408 1.14844,-1.58643 1.66699,-1.20557 2.99121,-2.36572 0.12158,-0.85986 0.0557,-1.11621 0.71191,-1.63477 0.29736,0.022 0.14355,-0.007 0.45996,0.104 0.16113,0.45996 0.19043,0.54932 0.43506,0.9917 0.71631,0.44385 3.12598,-0.12451 4.27002,-0.23437 -0.0293,-1.12939 -0.2124,-3.49805 0.63721,-4.29639 l 0.22119,0.0952 c 0.60352,1.12061 0.46875,2.88135 0.47314,4.19092 1.396,0.0527 2.98535,0.32666 4.38281,0.52734 0.59033,-2.08447 0.76465,-3.00146 0.83203,-5.12549 -1.69189,-0.0703 -3.45264,-0.0659 -5.15039,-0.0864 1.86182,-1.44287 2.59131,-1.16016 4.91016,-1.37402 0.69434,-1.02686 -0.73242,-1.5252 1.35205,-2.87886 0.11426,0.99829 0.19922,1.99995 0.25488,3.00337 1.47363,0.0234 2.94873,0.0205 4.42383,-0.0103 -0.13916,-2.19741 -0.76904,-3.30659 -1.44141,-5.32441 -0.14355,-0.42773 0.21094,-0.82983 0.45264,-1.24131 z"
       fill="#59b14a"
       id="path7-9"
       style="mix-blend-mode:normal;fill:#ffffff" />
    <path
       d="m 93.15947,110.07402 4.34326,0.0234 c -0.2915,2.28662 -0.76758,3.70459 -1.95557,5.64697 -0.28564,0.39404 -0.6123,0.79834 -0.9126,1.18359 -0.96533,-0.59033 -1.44873,-0.87451 -2.47852,-1.32568 0.70752,-2.41113 0.55811,-3.33105 1.00342,-5.52832 z"
       fill="#f2f2ea"
       id="path8-0"
       style="mix-blend-mode:normal;fill:#1a1a1a;fill-opacity:1" />
    <path
       d="m 86.48125,115.99785 c 1.59082,0.13184 2.38916,0.22266 3.93457,0.59912 -0.56543,1.0708 -0.94922,1.74316 -1.62012,2.74805 -0.53174,0.57715 -1.20117,1.41211 -2.01855,1.16895 -0.53613,-0.73682 -0.30322,-3.375 -0.2959,-4.51611 z"
       fill="#f2f2ea"
       id="path9-5"
       style="mix-blend-mode:normal;fill:#1a1a1a;fill-opacity:1" />
    <path
       d="m 83.3333,116.19707 1.89697,-0.0937 c -0.009,1.31543 0.31348,3.36621 -0.21826,4.43555 -0.42334,0.1582 -0.3457,0.0776 -0.89648,-0.12891 -1.43115,-1.10303 -2.01416,-2.27637 -2.7832,-3.854 0.65479,-0.13037 1.34033,-0.2417 2.00098,-0.35889 z"
       fill="#f2f2ea"
       id="path10-2"
       style="mix-blend-mode:normal;fill:#1a1a1a;fill-opacity:1" />
    <path
       d="m 91.68731,116.95 c 0.62402,0.17871 1.35791,0.60059 1.94971,0.90674 -0.83936,0.74561 -1.31543,1.06787 -2.26172,1.69043 -0.5332,0.2666 -1.10596,0.52734 -1.64648,0.78369 0.87891,-1.24365 1.32129,-2.01416 1.9585,-3.38086 z"
       fill="#f2f2ea"
       id="path11-2"
       style="mix-blend-mode:normal;fill:#000000;fill-opacity:1" />
    <path
       d="m 78.09356,117.76738 c 0.56982,-0.29004 1.09131,-0.64014 1.70654,-0.646 0.4834,0.27979 0.33105,0.18604 0.61816,0.7793 0.43945,0.74854 0.83496,1.43848 1.33447,2.14893 -1.01221,-0.44092 -1.36523,-0.66357 -2.29541,-1.26562 -0.42627,-0.27686 -0.94775,-0.7002 -1.36377,-1.0166 z"
       fill="#eef8db"
       id="path12-7"
       style="mix-blend-mode:normal;fill:#000000;fill-opacity:1" />
    <path
       d="m 79.45732,118.78398 c 0.35596,-0.54932 0.42773,-0.7207 0.96094,-0.8833 0.43945,0.74854 0.83496,1.43848 1.33447,2.14893 -1.01221,-0.44092 -1.36523,-0.66357 -2.29541,-1.26562 z"
       fill="#f2f2ea"
       id="path13-3"
       style="mix-blend-mode:normal;fill:#000000;fill-opacity:1" />
    <path
       d="m 84.18438,96.5667 c 3.62549,-0.53688 7.18945,0.72583 10.08545,2.85747 -0.20654,0.36812 -0.271,0.54185 -0.60498,0.81035 -0.80566,0.093 -2.67773,-1.28555 -3.72656,-1.80483 0.80859,1.17319 1.2832,2.31782 2.18848,3.53379 -1.95703,1.91792 -2.98975,2.01401 -5.62793,2.14424 0.0542,1.65161 0.26953,1.81699 -1.3623,2.55937 l 0.0352,-2.63276 c -1.45898,-0.0648 -3.02637,-0.33281 -4.44873,-0.66284 -0.41748,1.4707 -0.59619,2.48218 -0.84521,3.975 -0.0601,0.6123 -0.16553,0.81445 0.22705,1.2627 0.54639,0.13623 0.94775,0.13623 1.51318,0.16992 -0.62256,0.42334 -2.49316,1.92627 -3.06885,1.88672 l -0.23877,-0.58301 c -0.51123,-0.18604 -3.44824,-0.11133 -4.2085,-0.10547 0.14941,1.15137 1.04004,3.81885 0.35742,4.55273 -0.98291,-0.0688 -1.17773,-1.33447 -1.33594,-2.16064 -1.54687,-8.05356 3.1875,-14.36792 11.06104,-15.80273 z"
       fill="#59b14a"
       id="path16-7"
       style="mix-blend-mode:normal;fill:#ffffff" />
    <path
       d="m 76.7957,101.89023 c 0.46729,0.13198 2.15771,0.93618 2.6748,1.17129 -0.54639,1.85742 -0.77197,3.54902 -1.07373,5.45684 -0.41895,0.22266 -0.72949,0.15381 -1.24951,0.16553 l -2.98242,-0.0264 c 0.39111,-2.87578 0.99902,-4.40361 2.63086,-6.76729 z"
       fill="#f2f2ea"
       id="path17-9"
       style="mix-blend-mode:normal;fill:#1a1a1a;fill-opacity:1" />
    <path
       d="m 86.44902,97.70356 c 0.12158,0.0394 0.24316,0.0811 0.36328,0.12539 1.29639,0.48223 3.8042,3.04219 3.28125,4.3749 -1.39014,0.41646 -2.12988,0.45674 -3.55225,0.48545 -0.0718,-1.59346 -0.0659,-3.37676 -0.0923,-4.98574 z"
       fill="#f2f2ea"
       id="path18-0"
       style="mix-blend-mode:normal;fill:#000000;fill-opacity:1" />
    <path
       d="m 84.97246,97.81914 0.13477,0.1229 c 0.22266,0.68936 0.10254,3.79116 0.0864,4.76646 -1.23486,-0.0286 -2.12256,-0.18018 -3.31641,-0.42979 -0.0776,-0.0281 -0.32959,-0.16963 -0.41309,-0.21431 -0.28418,-1.31968 2.35986,-3.72012 3.5083,-4.24526 z"
       fill="#f2f2ea"
       id="path19-2"
       style="mix-blend-mode:normal;fill:#000000;fill-opacity:1" />
    <path
       d="m 81.50957,98.59067 c -0.0132,0.33135 -1.2583,2.41816 -1.57031,3.05112 l -1.29639,-0.45571 c -0.21826,-0.10298 -0.20947,-0.11851 -0.3999,-0.27202 0.21826,-0.76948 2.5415,-1.93447 3.2666,-2.32339 z"
       fill="#f2f2ea"
       id="path20-3"
       style="mix-blend-mode:normal;fill:#000000;fill-opacity:1" />
    <path
       d="m 96.20049,98.78359 c 0.52441,0.0889 0.57422,0.19351 0.80127,0.61201 -0.20654,4.33901 -17.45801,12.42744 -20.50049,16.11592 -2.68506,3.25635 -0.99463,4.48389 -1.8999,5.7832 -0.49512,-0.2124 -1.021,-0.61523 -1.06055,-1.19678 -0.44678,-6.25928 8.3291,-9.91113 12.77051,-12.87598 4.12207,-2.75186 7.05469,-4.004 9.88916,-8.43838 z"
       fill="#59b14a"
       id="path25-9"
       style="mix-blend-mode:normal;fill:#ffffff" />
    <path
       d="m 97.17461,91.59017 c 0.49512,0.0983 0.48193,0.0636 0.84521,0.40239 0.31348,0.57202 0.24609,1.18462 0.26221,1.85991 0.83936,0.13359 2.14014,0.17681 2.24268,1.21318 -0.5874,0.65713 -1.43994,0.38965 -2.25439,0.30483 -0.0117,0.94776 -0.0146,1.42545 -0.16406,2.36617 -0.4541,-0.092 -0.55078,-0.0885 -0.97266,-0.29736 -0.39697,-0.65068 -0.25928,-1.28086 -0.24609,-2.10353 -0.21533,0.0349 -0.43213,0.0681 -0.64746,0.0996 -0.73096,0.10576 -1.06348,0.22852 -1.67139,-0.22778 l -0.0308,-0.32124 c 0.52295,-0.82251 1.38135,-0.9022 2.32764,-1.15107 -0.006,-0.9252 -0.0718,-1.29888 0.30908,-2.14512 z"
       fill="#59b14a"
       id="path27-9"
       style="mix-blend-mode:normal;fill:#ffffff" />
  </g>
</svg>
