<?xml version="1.0" encoding="UTF-8" standalone="no"?>
<!-- Created with Inkscape (http://www.inkscape.org/) -->

<svg
   width="210mm"
   height="297mm"
   viewBox="0 0 210 297"
   version="1.1"
   id="svg1"
   inkscape:version="1.4.3 (0d15f75, 2025-12-25)"
   sodipodi:docname="art-3.svg"
   inkscape:export-filename="logo.svg"
   inkscape:export-xdpi="96"
   inkscape:export-ydpi="96"
   xmlns:inkscape="http://www.inkscape.org/namespaces/inkscape"
   xmlns:sodipodi="http://sodipodi.sourceforge.net/DTD/sodipodi-0.dtd"
   xmlns="http://www.w3.org/2000/svg"
   xmlns:svg="http://www.w3.org/2000/svg">
  <sodipodi:namedview
     id="namedview1"
     pagecolor="#ffffff"
     bordercolor="#000000"
     borderopacity="0.25"
     inkscape:showpageshadow="2"
     inkscape:pageopacity="0.0"
     inkscape:pagecheckerboard="0"
     inkscape:deskcolor="#d1d1d1"
     inkscape:document-units="mm"
     inkscape:zoom="0.40219822"
     inkscape:cx="358.03242"
     inkscape:cy="866.48817"
     inkscape:window-width="1680"
     inkscape:window-height="992"
     inkscape:window-x="0"
     inkscape:window-y="30"
     inkscape:window-maximized="1"
     inkscape:current-layer="g4" />
  <defs
     id="defs1">
    <clipPath
       id="clip-1">
      <rect
         x="0"
         y="0"
         transform="scale(0.14648)"
         width="2048"
         height="2048"
         fill="none"
         id="rect1-9" />
    </clipPath>
    <clipPath
       id="clipPath2">
      <rect
         x="0"
         y="0"
         transform="scale(0.14648)"
         width="2048"
         height="2048"
         fill="none"
         id="rect2" />
    </clipPath>
    <clipPath
       id="clip-1-4">
      <rect
         x="0"
         y="0"
         transform="scale(0.14648)"
         width="2048"
         height="2048"
         fill="none"
         id="rect1-9-9" />
    </clipPath>
    <clipPath
       id="clipPath2-5">
      <rect
         x="0"
         y="0"
         transform="scale(0.14648)"
         width="2048"
         height="2048"
         fill="none"
         id="rect2-5" />
    </clipPath>
  </defs>
  <g
     inkscape:label="Camada 1"
     inkscape:groupmode="layer"
     id="layer1">
    <g
       id="g4"
       transform="translate(28.138905,108.08619)">
      <rect
         style="fill:#1a1a1a;fill-opacity:1;stroke:#000000;stroke-width:0"
         id="rect1"
         width="164.65457"
         height="49.453571"
         x="-5.0797148"
         y="0.15303096" />
      <g
         id="g3"
         transform="translate(1.9735294,0.65784312)">
        <svg
           version="1.1"
           id="svg27"
           width="100%"
           height="100%">
          <defs
             id="defs1-7">
            <clipPath
               id="clipPath3">
              <rect
                 x="0"
                 y="0"
                 transform="scale(0.14648)"
                 width="2048"
                 height="2048"
                 fill="none"
                 id="rect3" />
            </clipPath>
          </defs>
          <g
             clip-path="url(#clip-1-4)"
             fill="none"
             fill-rule="nonzero"
             stroke="none"
             stroke-width="1"
             stroke-linecap="butt"
             stroke-linejoin="miter"
             stroke-miterlimit="10"
             stroke-dasharray="none"
             stroke-dashoffset="0"
             font-family="none"
             font-weight="none"
             font-size="none"
             text-anchor="none"
             style="mix-blend-mode:normal"
             id="g27">
            <g
               id="g29"
               transform="translate(-142.55661,-150.50401)">
              <path
                 d="m 232.63885,169.44147 c 0.57568,0.004 1.1499,0.0499 1.71973,0.13857 1.89844,0.29751 3.59473,1.35352 4.70068,2.92573 2.0083,2.85308 1.48389,7.09673 1.47656,10.46001 -0.004,1.37549 -2.59717,2.33496 -3.62109,-0.26074 -0.96094,0.75 -1.12939,0.85547 -2.19727,1.37988 -0.40137,0.0908 -0.8291,0.18604 -1.23633,0.24609 -1.90869,0.2959 -3.85547,-0.19922 -5.39062,-1.37256 -5.08154,-3.95947 -3.04248,-12.91685 4.54834,-13.51699 z"
                 fill="#19254c"
                 id="path2"
                 style="mix-blend-mode:normal;fill:#ffffff" />
              <path
                 d="m 232.20819,173.14181 c 2.09912,-0.38789 4.11914,0.98657 4.5293,3.0813 0.41016,2.09473 -0.94336,4.12793 -3.03369,4.56006 -1.37109,0.28418 -2.79053,-0.19043 -3.71484,-1.24365 -0.92432,-1.05322 -1.21143,-2.521 -0.75146,-3.84521 0.4585,-1.32275 1.59375,-2.2979 2.9707,-2.55249 z"
                 fill="#f2f2ea"
                 id="path3"
                 style="mix-blend-mode:normal;fill:#1a1a1a;fill-opacity:1" />
              <path
                 d="m 195.08846,171.81788 c 0.61494,-0.72832 1.1606,-1.34751 2.03057,-1.77656 3.25796,-1.46016 6.97705,-0.43623 8.68403,2.92954 0.64263,1.26738 1.18784,9.22295 0.5439,10.36113 -1.38281,2.44189 -4.27354,0.24609 -3.53789,-2.67334 0.11953,-0.47461 0.0538,-4.27002 -0.13462,-5.04785 -0.12642,-1.20117 -0.85474,-1.81055 -1.68296,-2.37554 -3.89062,-0.53569 -4.16909,1.62261 -4.1335,4.83501 0.001,1.03564 0.17256,4.37695 -0.16274,5.10059 -0.23599,0.50098 -0.67544,0.87891 -1.20732,1.03418 -3.93545,1.15869 -1.84731,-6.90967 -2.47896,-8.8125 -0.6208,-1.87134 -2.14116,-2.76079 -3.89692,-2.06499 -3.55063,1.40728 -1.01968,7.26079 -2.12153,10.05278 -0.63193,1.57031 -3.43652,1.03271 -3.44678,-0.73682 -0.0401,-0.95947 0.0211,-2.15039 -0.0243,-3.12744 -0.22632,-4.86328 0.21973,-9.404 6.1519,-10.07842 2.52671,-0.11323 3.76157,0.554 5.41714,2.38022 z"
                 fill="#19254c"
                 id="path4"
                 style="mix-blend-mode:normal;fill:#ffffff" />
              <path
                 d="m 173.19754,169.44191 c 6.21724,-0.14399 8.29878,5.37642 7.88335,10.45356 -0.12495,1.52637 0.48604,4.19971 -1.78872,4.52783 -0.78486,0.11279 -1.48462,-1.06494 -1.93389,-1.57617 -0.60703,0.35889 -1.21172,0.72217 -1.81377,1.08984 -10.68853,3.37061 -13.42046,-13.56196 -2.34697,-14.49507 z"
                 fill="#19254c"
                 id="path5"
                 style="mix-blend-mode:normal;fill:#ffffff" />
              <g
                 id="g28"
                 style="fill:#1a1a1a;fill-opacity:1">
                <path
                   d="m 172.4348,173.3006 c 2.04272,-0.59546 4.17949,0.58755 4.75986,2.63394 0.58022,2.04785 -0.61816,4.1748 -2.66953,4.74023 -2.02983,0.55957 -4.13071,-0.62402 -4.70479,-2.6499 -0.57422,-2.02588 0.59312,-4.13525 2.61445,-4.72427 z"
                   fill="#f2f2ea"
                   id="path6"
                   style="mix-blend-mode:normal;fill:#1a1a1a;fill-opacity:1" />
              </g>
              <path
                 d="m 281.75653,168.57487 c 0.10693,0.0672 0.25195,0.14985 0.31787,0.2499 5.55029,8.44863 -0.69873,19.63857 -10.69775,19.84365 -3.9624,0.0806 -7.08838,-1.75928 -9.83643,-4.43408 1.14844,-1.58643 1.66699,-1.20557 2.99121,-2.36572 0.12158,-0.85986 0.0557,-1.11621 0.71191,-1.63477 0.29736,0.022 0.14355,-0.007 0.45996,0.104 0.16113,0.45996 0.19043,0.54932 0.43506,0.9917 0.71631,0.44385 3.12598,-0.12451 4.27002,-0.23437 -0.0293,-1.12939 -0.2124,-3.49805 0.63721,-4.29639 l 0.22119,0.0952 c 0.60352,1.12061 0.46875,2.88135 0.47314,4.19092 1.396,0.0527 2.98535,0.32666 4.38281,0.52734 0.59033,-2.08447 0.76465,-3.00146 0.83203,-5.12549 -1.69189,-0.0703 -3.45264,-0.0659 -5.15039,-0.0864 1.86182,-1.44287 2.59131,-1.16016 4.91016,-1.37402 0.69434,-1.02686 -0.73242,-1.5252 1.35205,-2.87886 0.11426,0.99829 0.19922,1.99995 0.25488,3.00337 1.47363,0.0234 2.94873,0.0205 4.42383,-0.0103 -0.13916,-2.19741 -0.76904,-3.30659 -1.44141,-5.32441 -0.14355,-0.42773 0.21094,-0.82983 0.45264,-1.24131 z"
                 fill="#59b14a"
                 id="path7"
                 style="mix-blend-mode:normal;fill:#ffffff" />
              <path
                 d="m 278.40203,176.48385 4.34326,0.0234 c -0.2915,2.28662 -0.76758,3.70459 -1.95557,5.64697 -0.28564,0.39404 -0.6123,0.79834 -0.9126,1.18359 -0.96533,-0.59033 -1.44873,-0.87451 -2.47852,-1.32568 0.70752,-2.41113 0.55811,-3.33105 1.00342,-5.52832 z"
                 fill="#f2f2ea"
                 id="path8"
                 style="mix-blend-mode:normal;fill:#1a1a1a;fill-opacity:1" />
              <path
                 d="m 271.72381,182.40768 c 1.59082,0.13184 2.38916,0.22266 3.93457,0.59912 -0.56543,1.0708 -0.94922,1.74316 -1.62012,2.74805 -0.53174,0.57715 -1.20117,1.41211 -2.01855,1.16895 -0.53613,-0.73682 -0.30322,-3.375 -0.2959,-4.51611 z"
                 fill="#f2f2ea"
                 id="path9"
                 style="mix-blend-mode:normal;fill:#1a1a1a;fill-opacity:1" />
              <path
                 d="m 268.57586,182.6069 1.89697,-0.0937 c -0.009,1.31543 0.31348,3.36621 -0.21826,4.43555 -0.42334,0.1582 -0.3457,0.0776 -0.89648,-0.12891 -1.43115,-1.10303 -2.01416,-2.27637 -2.7832,-3.854 0.65479,-0.13037 1.34033,-0.2417 2.00098,-0.35889 z"
                 fill="#f2f2ea"
                 id="path10"
                 style="mix-blend-mode:normal;fill:#1a1a1a;fill-opacity:1" />
              <path
                 d="m 276.92987,183.35983 c 0.62402,0.17871 1.35791,0.60059 1.94971,0.90674 -0.83936,0.74561 -1.31543,1.06787 -2.26172,1.69043 -0.5332,0.2666 -1.10596,0.52734 -1.64648,0.78369 0.87891,-1.24365 1.32129,-2.01416 1.9585,-3.38086 z"
                 fill="#f2f2ea"
                 id="path11"
                 style="mix-blend-mode:normal;fill:#000000;fill-opacity:1" />
              <path
                 d="m 263.33612,184.17721 c 0.56982,-0.29004 1.09131,-0.64014 1.70654,-0.646 0.4834,0.27979 0.33105,0.18604 0.61816,0.7793 0.43945,0.74854 0.83496,1.43848 1.33447,2.14893 -1.01221,-0.44092 -1.36523,-0.66357 -2.29541,-1.26562 -0.42627,-0.27686 -0.94775,-0.7002 -1.36377,-1.0166 z"
                 fill="#eef8db"
                 id="path12"
                 style="mix-blend-mode:normal;fill:#000000;fill-opacity:1" />
              <path
                 d="m 264.69988,185.19381 c 0.35596,-0.54932 0.42773,-0.7207 0.96094,-0.8833 0.43945,0.74854 0.83496,1.43848 1.33447,2.14893 -1.01221,-0.44092 -1.36523,-0.66357 -2.29541,-1.26562 z"
                 fill="#f2f2ea"
                 id="path13"
                 style="mix-blend-mode:normal;fill:#000000;fill-opacity:1" />
              <path
                 d="m 215.591,169.44 c 4.13086,-0.29941 7.72412,2.80107 8.0332,6.93105 0.30908,4.12939 -2.7832,7.72998 -6.9126,8.04785 -4.14229,0.31934 -7.75693,-2.78467 -8.06675,-6.92725 -0.30996,-4.14375 2.80283,-7.75137 6.94614,-8.05166 z"
                 fill="#19254c"
                 id="path14"
                 style="mix-blend-mode:normal;fill:#ffffff" />
              <path
                 d="m 215.41668,173.16598 c 2.08887,-0.39551 4.09863,0.98584 4.47949,3.07764 0.38086,2.09033 -1.01514,4.09131 -3.10986,4.45605 -2.07129,0.36182 -4.0478,-1.0166 -4.42427,-3.08643 -0.37646,-2.06982 0.9876,-4.05586 3.05464,-4.44727 z"
                 fill="#f2f2ea"
                 id="path15"
                 style="mix-blend-mode:normal;fill:#1a1a1a;fill-opacity:1" />
              <path
                 d="m 269.42694,162.97653 c 3.62549,-0.53687 7.18945,0.72583 10.08545,2.85747 -0.20654,0.36812 -0.271,0.54185 -0.60498,0.81035 -0.80566,0.093 -2.67773,-1.28555 -3.72656,-1.80483 0.80859,1.17319 1.2832,2.31782 2.18848,3.53379 -1.95703,1.91792 -2.98975,2.01401 -5.62793,2.14424 0.0542,1.65161 0.26953,1.81699 -1.3623,2.55937 l 0.0352,-2.63276 c -1.45898,-0.0648 -3.02637,-0.33281 -4.44873,-0.66284 -0.41748,1.4707 -0.59619,2.48218 -0.84521,3.975 -0.0601,0.6123 -0.16553,0.81445 0.22705,1.2627 0.54639,0.13623 0.94775,0.13623 1.51318,0.16992 -0.62256,0.42334 -2.49316,1.92627 -3.06885,1.88672 l -0.23877,-0.58301 c -0.51123,-0.18604 -3.44824,-0.11133 -4.2085,-0.10547 0.14941,1.15137 1.04004,3.81885 0.35742,4.55273 -0.98291,-0.0688 -1.17773,-1.33447 -1.33594,-2.16064 -1.54687,-8.05356 3.1875,-14.36792 11.06104,-15.80273 z"
                 fill="#59b14a"
                 id="path16"
                 style="mix-blend-mode:normal;fill:#ffffff" />
              <path
                 d="m 262.03826,168.30006 c 0.46729,0.13198 2.15771,0.93618 2.6748,1.17129 -0.54639,1.85742 -0.77197,3.54902 -1.07373,5.45684 -0.41895,0.22266 -0.72949,0.15381 -1.24951,0.16553 l -2.98242,-0.0264 c 0.39111,-2.87578 0.99902,-4.40361 2.63086,-6.76729 z"
                 fill="#f2f2ea"
                 id="path17"
                 style="mix-blend-mode:normal;fill:#1a1a1a;fill-opacity:1" />
              <path
                 d="m 271.69158,164.11339 c 0.12158,0.0394 0.24316,0.0811 0.36328,0.12539 1.29639,0.48223 3.8042,3.04219 3.28125,4.3749 -1.39014,0.41646 -2.12988,0.45674 -3.55225,0.48545 -0.0718,-1.59346 -0.0659,-3.37676 -0.0923,-4.98574 z"
                 fill="#f2f2ea"
                 id="path18"
                 style="mix-blend-mode:normal;fill:#000000;fill-opacity:1" />
              <path
                 d="m 270.21502,164.22897 0.13477,0.1229 c 0.22266,0.68936 0.10254,3.79116 0.0864,4.76646 -1.23486,-0.0286 -2.12256,-0.18018 -3.31641,-0.42979 -0.0776,-0.0281 -0.32959,-0.16963 -0.41309,-0.21431 -0.28418,-1.31968 2.35986,-3.72012 3.5083,-4.24526 z"
                 fill="#f2f2ea"
                 id="path19"
                 style="mix-blend-mode:normal;fill:#000000;fill-opacity:1" />
              <path
                 d="m 266.75213,165.0005 c -0.0132,0.33135 -1.2583,2.41816 -1.57031,3.05112 l -1.29639,-0.45571 c -0.21826,-0.10298 -0.20947,-0.11851 -0.3999,-0.27202 0.21826,-0.76948 2.5415,-1.93447 3.2666,-2.32339 z"
                 fill="#f2f2ea"
                 id="path20"
                 style="mix-blend-mode:normal;fill:#000000;fill-opacity:1" />
              <path
                 d="m 152.4949,169.54284 c 0.29751,0.007 0.72554,0.0395 0.99697,0.16348 1.4562,0.66475 3.86748,8.30977 4.61616,10.12324 0.70342,-1.63184 1.37476,-3.27686 2.01387,-4.93652 0.63149,-1.65366 1.67812,-6.20889 4.07813,-5.1709 0.45937,0.19863 0.81533,0.57949 0.98247,1.05117 0.35537,1.00547 -0.52954,2.60859 -0.96621,3.63926 -1.36714,3.09082 -2.51572,6.63574 -4.37607,9.36328 -0.66724,0.97852 -3.33208,0.57129 -3.68628,-0.11426 -1.16924,-2.26904 -5.16563,-10.78125 -5.15391,-12.86074 0.43198,-0.85093 0.60645,-0.93018 1.49487,-1.25801 z"
                 fill="#19254c"
                 id="path21"
                 style="mix-blend-mode:normal;fill:#ffffff" />
              <path
                 d="m 244.92889,164.42042 c 0.99316,0.10869 2.03613,0.49263 2.02148,1.68296 -0.0689,5.59966 0.28564,11.64023 -0.0176,17.20664 -0.64014,0.60352 -0.74121,0.74414 -1.56885,1.05176 -0.375,-0.0352 -0.77197,-0.10107 -1.11328,-0.2666 -0.36768,-0.17871 -0.69141,-0.53613 -0.81592,-0.92578 -0.34424,-1.08545 -0.22119,-17.38887 0.12158,-17.90464 0.33545,-0.50537 0.81445,-0.6832 1.37256,-0.84434 z"
                 fill="#19254c"
                 id="path22"
                 style="mix-blend-mode:normal;fill:#ffffff" />
              <path
                 d="m 251.216,169.66984 c 1.34912,-0.0278 2.36279,0.28081 2.41992,1.81846 0.14063,3.80024 0.12598,7.67622 0.004,11.47896 -0.0176,0.54932 -0.7207,1.00928 -1.13232,1.28174 -0.93604,0.0659 -2.25879,-0.14502 -2.37598,-1.32715 -0.25928,-2.60596 -0.0644,-5.29834 -0.11865,-7.91895 -0.0249,-1.27588 0.0103,-2.59731 0.0571,-3.8729 0.0293,-0.71074 0.63428,-1.08237 1.14551,-1.46016 z"
                 fill="#19254c"
                 id="path24"
                 style="mix-blend-mode:normal;fill:#ffffff" />
              <path
                 d="m 281.44305,165.19342 c 0.52441,0.0889 0.57422,0.19351 0.80127,0.61201 -0.20654,4.33901 -17.45801,12.42744 -20.50049,16.11592 -2.68506,3.25635 -0.99463,4.48389 -1.8999,5.7832 -0.49512,-0.2124 -1.021,-0.61523 -1.06055,-1.19678 -0.44678,-6.25928 8.3291,-9.91113 12.77051,-12.87598 4.12207,-2.75186 7.05469,-4.004 9.88916,-8.43838 z"
                 fill="#59b14a"
                 id="path25"
                 style="mix-blend-mode:normal;fill:#ffffff" />
              <path
                 d="m 251.09735,163.6316 c 1.10449,-0.4043 2.32764,0.15776 2.74072,1.25889 0.41309,1.10112 -0.13916,2.32925 -1.23779,2.75054 -1.11035,0.42612 -2.354,-0.13389 -2.77148,-1.24717 -0.41748,-1.11328 0.15234,-2.35342 1.26855,-2.76226 z"
                 fill="#19254c"
                 id="path26"
                 style="mix-blend-mode:normal;fill:#ffffff" />
              <path
                 d="m 282.41717,158.00001 c 0.49512,0.0983 0.48193,0.0636 0.84521,0.40239 0.31348,0.57202 0.24609,1.18462 0.26221,1.85991 0.83936,0.13359 2.14014,0.17681 2.24268,1.21318 -0.5874,0.65713 -1.43994,0.38965 -2.25439,0.30483 -0.0117,0.94775 -0.0146,1.42544 -0.16406,2.36616 -0.4541,-0.092 -0.55078,-0.0885 -0.97266,-0.29736 -0.39697,-0.65068 -0.25928,-1.28086 -0.24609,-2.10352 -0.21533,0.0349 -0.43213,0.0681 -0.64746,0.0996 -0.73096,0.10576 -1.06348,0.22852 -1.67139,-0.22778 l -0.0308,-0.32124 c 0.52295,-0.82251 1.38135,-0.9022 2.32764,-1.15107 -0.006,-0.9252 -0.0718,-1.29888 0.30908,-2.14512 z"
                 fill="#59b14a"
                 id="path27"
                 style="mix-blend-mode:normal;fill:#ffffff" />
            </g>
          </g>
        </svg>
      </g>
    </g>
  </g>
</svg>
